<svg xmlns="http://www.w3.org/2000/svg" viewBox="0 0 200 200" width="200" height="200">

  <defs>
    <clipPath id="hexClip"><polygon points="179.67,54.00 179.67,146.00 100.00,192.00 20.33,146.00 20.33,54.00 100.00,8.00"/></clipPath>
    <linearGradient id="bgGrad" x1="0%" y1="0%" x2="100%" y2="100%">
      <stop offset="0%" stop-color="#0a1830"/>
      <stop offset="100%" stop-color="#050a14"/>
    </linearGradient>
    <radialGradient id="fadeEdge" cx="38%" cy="62%" r="72%">
      <stop offset="45%" stop-color="#050a14" stop-opacity="0"/>
      <stop offset="100%" stop-color="#050a14" stop-opacity="0.85"/>
    </radialGradient>
    <filter id="glow" x="-120%" y="-120%" width="340%" height="340%">
      <feGaussianBlur stdDeviation="3" result="blur"/>
      <feMerge><feMergeNode in="blur"/><feMergeNode in="SourceGraphic"/></feMerge>
    </filter>
  </defs>

<polygon points="179.67,54.00 179.67,146.00 100.00,192.00 20.33,146.00 20.33,54.00 100.00,8.00" fill="url(#bgGrad)"/>
<g clip-path="url(#hexClip)">
<ellipse cx="78" cy="128" rx="130.0" ry="111.8" fill="none" stroke="#6c8ad8" stroke-width="6.5" opacity="0.9"/>
<ellipse cx="78" cy="128" rx="120.2" ry="103.4" fill="none" stroke="#6caad8" stroke-width="6.5" opacity="0.9"/>
<ellipse cx="78" cy="128" rx="110.4" ry="94.9" fill="none" stroke="#6cc9d8" stroke-width="6.5" opacity="0.9"/>
<ellipse cx="78" cy="128" rx="100.5" ry="86.5" fill="none" stroke="#6cd8c8" stroke-width="6.5" opacity="0.9"/>
<ellipse cx="78" cy="128" rx="90.7" ry="78.0" fill="none" stroke="#6cd8a9" stroke-width="6.5" opacity="0.9"/>
<ellipse cx="78" cy="128" rx="80.9" ry="69.6" fill="none" stroke="#6cd88a" stroke-width="6.5" opacity="0.9"/>
<ellipse cx="78" cy="128" rx="71.1" ry="61.1" fill="none" stroke="#6dd86c" stroke-width="6.5" opacity="0.9"/>
<ellipse cx="78" cy="128" rx="61.3" ry="52.7" fill="none" stroke="#8dd86c" stroke-width="6.5" opacity="0.9"/>
<ellipse cx="78" cy="128" rx="51.5" ry="44.3" fill="none" stroke="#acd86c" stroke-width="6.5" opacity="0.9"/>
<ellipse cx="78" cy="128" rx="41.6" ry="35.8" fill="none" stroke="#cbd86c" stroke-width="6.5" opacity="0.9"/>
<ellipse cx="78" cy="128" rx="31.8" ry="27.4" fill="none" stroke="#d8c66c" stroke-width="6.5" opacity="0.9"/>
</g>
<polygon points="179.67,54.00 179.67,146.00 100.00,192.00 20.33,146.00 20.33,54.00 100.00,8.00" fill="url(#fadeEdge)"/>
<polygon points="179.67,54.00 179.67,146.00 100.00,192.00 20.33,146.00 20.33,54.00 100.00,8.00" fill="none" stroke="#0a1830" stroke-width="3"/>
<line x1="140" y1="118" x2="100" y2="96" stroke="#f4f8fc" stroke-width="1.6" opacity="0.30" stroke-dasharray="1,4" stroke-linecap="round"/>
<line x1="58" y1="62" x2="100" y2="96" stroke="#f4f8fc" stroke-width="2.4" opacity="0.95" stroke-linecap="round"/>
<line x1="128" y1="56" x2="100" y2="96" stroke="#f4f8fc" stroke-width="2.4" opacity="0.95" stroke-linecap="round"/>
<line x1="66" y1="134" x2="100" y2="96" stroke="#f4f8fc" stroke-width="2.4" opacity="0.95" stroke-linecap="round"/>
<circle cx="58" cy="62" r="6" fill="#f4f8fc"/>
<circle cx="58" cy="62" r="6" fill="none" stroke="#0a1830" stroke-width="1.4"/>
<circle cx="128" cy="56" r="6" fill="#f4f8fc"/>
<circle cx="128" cy="56" r="6" fill="none" stroke="#0a1830" stroke-width="1.4"/>
<circle cx="140" cy="118" r="6" fill="#f4f8fc"/>
<circle cx="140" cy="118" r="6" fill="none" stroke="#0a1830" stroke-width="1.4"/>
<circle cx="66" cy="134" r="6" fill="#f4f8fc"/>
<circle cx="66" cy="134" r="6" fill="none" stroke="#0a1830" stroke-width="1.4"/>
<circle cx="100" cy="96" r="10.5" fill="#ffb238" filter="url(#glow)"/>
<circle cx="100" cy="96" r="10.5" fill="none" stroke="#2e1a00" stroke-width="1.4"/>
</svg>